# xmcd
#
# Track frame offsets:
#	150
#	20169
#	36990
#	56512
#	69127
#	86940
#	97677
#	117110
#	136082
#	155152
#	168932
#	184872
#
# Disc length: 2670 seconds
#
# Revision: 1
# Processed by: cddbd v1.5.1PL0 Copyright (c) Steve Scherf et al.
# Submitted via: EasyCDDAExtractor 6.5.7.1
#
DISCID=990a6c0c
DTITLE=Leonardo - Vivências I
DYEAR=2000
DGENRE=Gaúcha
TTITLE0=Acidente Campeiro
TTITLE1=O Mate
TTITLE2=Erexim História e Canto
TTITLE3=Minha Infância
TTITLE4=Quando se Ama
TTITLE5=Capital do bem Querer
TTITLE6=Gauchadas
TTITLE7=Gesto Espontâneo
TTITLE8=Coração Vazio
TTITLE9=Potro e Consciência
TTITLE10=Cantiga dos Hervais
TTITLE11=Lamento de um Gaúcho
EXTD=
EXTT0=
EXTT1=
EXTT2=
EXTT3=
EXTT4=
EXTT5=
EXTT6=
EXTT7=
EXTT8=
EXTT9=
EXTT10=
EXTT11=
PLAYORDER=
